<svg width="123" height="50" viewBox="0 0 123 50" fill="none" xmlns="http://www.w3.org/2000/svg">
<path d="M62.4805 38.8765H63.4295V43.0522C63.4295 43.7734 63.3536 44.3618 63.1828 44.7794C63.0119 45.197 62.7272 45.5576 62.2907 45.8233C61.8541 46.0891 61.3037 46.2219 60.6014 46.2219C59.9181 46.2219 59.3677 46.1081 58.9501 45.8803C58.5136 45.6525 58.2099 45.3109 58.0201 44.8743C57.8303 44.4378 57.7354 43.8304 57.7354 43.0712V38.8954H58.6844V43.0522C58.6844 43.6785 58.7413 44.1341 58.8552 44.4378C58.9691 44.7415 59.1779 44.9692 59.4626 45.1211C59.7473 45.2729 60.0889 45.3678 60.5065 45.3678C61.2088 45.3678 61.7023 45.216 62.006 44.8933C62.3097 44.5706 62.4615 43.9633 62.4615 43.0522L62.4805 38.8765ZM78.0635 46.0891V38.8765H82.9225V39.7306H79.0125V41.9703H82.3911V42.8244H79.0125V46.1081L78.0635 46.0891ZM97.12 46.0891V38.8765H99.8342C100.385 38.8765 100.821 38.9524 101.163 39.0852C101.505 39.2371 101.751 39.4649 101.941 39.7686C102.131 40.0722 102.226 40.3949 102.226 40.7176C102.226 41.0213 102.15 41.325 101.979 41.5907C101.808 41.8564 101.561 42.0842 101.22 42.255C101.656 42.3879 101.998 42.5967 102.226 42.9003C102.454 43.204 102.586 43.5647 102.586 44.0012C102.586 44.3429 102.51 44.6466 102.378 44.9502C102.245 45.2539 102.055 45.4627 101.846 45.6146C101.637 45.7664 101.372 45.8993 101.049 45.9752C100.726 46.0511 100.347 46.0891 99.8912 46.0891H97.12ZM98.069 41.9134H99.6254C100.043 41.9134 100.347 41.8754 100.536 41.8374C100.783 41.7615 100.954 41.6476 101.087 41.4768C101.201 41.306 101.277 41.0972 101.277 40.8504C101.277 40.6037 101.22 40.3949 101.106 40.2241C100.992 40.0343 100.821 39.9204 100.612 39.8445C100.404 39.7685 100.024 39.7496 99.5115 39.7496H98.069V41.9134ZM98.069 45.2349H99.8722C100.176 45.2349 100.404 45.216 100.518 45.197C100.745 45.159 100.916 45.0831 101.068 45.0072C101.22 44.9123 101.334 44.7794 101.429 44.6086C101.523 44.4378 101.58 44.229 101.58 44.0012C101.58 43.7355 101.504 43.5077 101.372 43.2989C101.239 43.1091 101.049 42.9573 100.802 42.8814C100.555 42.8054 100.214 42.7675 99.7393 42.7675H98.069V45.2349ZM116.063 46.0891L118.834 38.8765H119.859L122.82 46.0891H121.738L120.903 43.9063H117.885L117.088 46.0891H116.063ZM118.15 43.1281H120.599L119.84 41.1351C119.612 40.5278 119.441 40.0343 119.327 39.6357C119.232 40.0912 119.099 40.5657 118.929 41.0213L118.15 43.1281Z" fill="white"/>
<path d="M60.6397 33.1252H57.7737V16.9918H60.6397V33.1252ZM61.0193 12.2656C61.0193 12.835 60.8485 13.2906 60.5258 13.6322C60.2032 13.9739 59.7476 14.1637 59.1972 14.1637C58.6657 14.1637 58.2482 13.9928 57.9065 13.6322C57.5649 13.2716 57.394 12.816 57.394 12.2656C57.394 11.7152 57.5649 11.2596 57.9065 10.899C58.2482 10.5384 58.6847 10.3675 59.1972 10.3675C59.7476 10.3675 60.1842 10.5384 60.5258 10.899C60.8485 11.2596 61.0193 11.7152 61.0193 12.2656ZM64.8534 33.1252V21.3003C64.8534 20.1615 64.8154 18.719 64.7205 16.9918H67.2449L67.3778 19.2884H67.4537C68.4597 17.5612 69.9592 16.6881 71.9901 16.6881C73.4136 16.6881 74.5714 17.2195 75.4635 18.3014C76.3556 19.3643 76.7922 20.9207 76.7922 22.9327V33.1252H73.9261V23.3313C73.9261 20.5032 72.9391 19.0986 70.9841 19.0986C70.0541 19.0986 69.2948 19.4782 68.6685 20.2564C68.0421 21.0156 67.7195 22.0216 67.7195 23.2364V33.1252H64.8534ZM84.2515 33.1252H81.3855V19.1555H79.2596V16.9918H81.3855V16.1187C81.3855 14.6002 81.6132 13.3665 82.0688 12.3605C82.5243 11.3735 83.1507 10.6333 83.9668 10.1588C84.783 9.68425 85.6751 9.4375 86.662 9.4375C87.5352 9.4375 88.2944 9.58934 88.9587 9.87405L88.5601 12.0758C88.0856 11.867 87.5352 11.7721 86.9278 11.7721C85.1436 11.7721 84.2705 13.1956 84.2705 16.0427V16.9728H87.668V19.1366H84.2705V33.1252H84.2515ZM101.809 24.9636C101.809 26.7288 101.524 28.2472 100.954 29.5189C100.385 30.7906 99.5688 31.7586 98.5249 32.4229C97.481 33.0873 96.3421 33.4289 95.1084 33.4289C93.1534 33.4289 91.578 32.6887 90.3633 31.2082C89.1485 29.7277 88.5411 27.6968 88.5411 25.1344C88.5411 22.4392 89.1865 20.3513 90.4771 18.8898C91.7678 17.4283 93.3622 16.7071 95.3172 16.7071C97.2722 16.7071 98.8476 17.4473 100.024 18.9278C101.22 20.4083 101.809 22.4202 101.809 24.9636ZM91.4072 25.0585C91.4072 26.8047 91.7488 28.2852 92.4321 29.462C93.1154 30.6388 94.0075 31.2272 95.1464 31.2272C96.2852 31.2272 97.1773 30.6198 97.8606 29.424C98.5439 28.2282 98.8855 26.7667 98.8855 25.0205C98.8855 23.2933 98.5629 21.8508 97.9175 20.655C97.2722 19.4592 96.3611 18.8898 95.1843 18.8898C93.9885 18.8898 93.0775 19.4782 92.4132 20.636C91.7488 21.8128 91.4072 23.2933 91.4072 25.0585Z" fill="white"/>
<path d="M104.902 39.6355L104.56 37.3768C105.434 37.2819 106.155 37.0351 106.705 36.6555C107.256 36.2759 107.654 35.6685 107.863 34.8524C108.072 34.0362 108.186 32.6127 108.186 30.6007V16.631H111.052V31.5308C111.052 33.9793 110.748 35.7255 110.141 36.7694C109.533 37.8133 108.736 38.5536 107.749 38.9712C106.8 39.3887 105.851 39.6165 104.902 39.6355ZM111.45 11.9049C111.45 12.4553 111.28 12.9109 110.938 13.2715C110.596 13.6321 110.16 13.8029 109.609 13.8029C109.078 13.8029 108.66 13.6131 108.319 13.2525C107.977 12.8919 107.806 12.4363 107.806 11.9049C107.806 11.3545 107.977 10.8989 108.319 10.5383C108.66 10.1777 109.097 10.0068 109.628 10.0068C110.16 10.0068 110.596 10.1777 110.919 10.5383C111.242 10.8989 111.45 11.3545 111.45 11.9049ZM115.171 32.7645V21.2623C115.171 19.9716 115.133 18.4152 115.038 16.631H117.562L117.695 19.4592H117.79C118.132 18.4911 118.644 17.7319 119.365 17.1625C120.087 16.5931 120.865 16.3274 121.681 16.3274L122.383 16.3653V19.2124C122.269 19.1744 122.004 19.1365 121.624 19.1365C120.637 19.1365 119.783 19.5541 119.081 20.3702C118.378 21.1864 118.018 22.4201 118.018 24.0335V32.7645H115.171Z" fill="white"/>
<rect x="19.4137" y="0.421875" width="11.7679" height="49.3494" rx="5.88397" fill="white"/>
<path d="M50.371 12.854C50.0673 -4.38038 1.45816 -4.49426 0.755876 13.784C0.300343 25.4001 10.6068 33.0683 10.8156 43.3177C10.9105 47.8921 18.2559 50.0558 25.6773 49.9989C25.7533 49.9989 25.8292 49.9989 25.9241 49.9989C26.968 49.9989 27.993 49.942 28.9989 49.8281C35.5662 49.1827 41.3173 46.7722 41.0516 42.7294C40.1026 29.1772 49.384 23.1794 50.371 12.854ZM30.4604 45.6144C30.4604 47.7782 28.5814 49.5434 26.2847 49.5434H24.1969C21.9002 49.5434 20.0211 47.7782 20.0211 45.6144V18.6051C20.0211 16.4413 21.9002 14.6761 24.1969 14.6761H26.2847C28.5814 14.6761 30.4604 16.4413 30.4604 18.6051V45.6144ZM25.2408 13.1387C22.0331 13.1387 19.4327 10.4055 19.4327 7.04592C19.4327 3.68636 22.0331 0.953159 25.2408 0.953159C28.4485 0.953159 31.0488 3.68636 31.0488 7.04592C31.0488 10.4055 28.4485 13.1387 25.2408 13.1387Z" fill="#7CB124"/>
</svg>
