<svg width="257" height="60" viewBox="0 0 257 60" fill="none" xmlns="http://www.w3.org/2000/svg">
<path d="M3.44769 6.57252C2.45882 6.57252 1.6303 6.26527 0.962146 5.65076C0.320715 5.00954 0 4.22137 0 3.28626C0 2.35114 0.320715 1.57634 0.962146 0.961832C1.6303 0.32061 2.45882 0 3.44769 0C4.43656 0 5.25171 0.32061 5.89314 0.961832C6.5613 1.57634 6.89538 2.35114 6.89538 3.28626C6.89538 4.22137 6.5613 5.00954 5.89314 5.65076C5.25171 6.26527 4.43656 6.57252 3.44769 6.57252ZM6.21386 9.21756V31.4198H0.601341V9.21756H6.21386Z" fill="white"/>
<path d="M24.1918 8.89695C26.8377 8.89695 28.9758 9.73855 30.6061 11.4218C32.2364 13.0782 33.0515 15.4027 33.0515 18.395V31.4198H27.439V19.1565C27.439 17.3931 26.998 16.0439 26.1161 15.1088C25.2341 14.1469 24.0314 13.666 22.508 13.666C20.9579 13.666 19.7285 14.1469 18.8198 15.1088C17.9378 16.0439 17.4968 17.3931 17.4968 19.1565V31.4198H11.8843V9.21756H17.4968V11.9828C18.2452 11.021 19.194 10.2729 20.3432 9.73855C21.5191 9.17748 22.802 8.89695 24.1918 8.89695Z" fill="white"/>
<path d="M48.6967 13.8263H44.808V31.4198H39.1154V13.8263H36.5897V9.21756H39.1154V8.09542C39.1154 5.37023 39.8904 3.36641 41.4405 2.08397C42.9907 0.801527 45.3292 0.200382 48.4562 0.280535V5.00954C47.0931 4.98282 46.1444 5.20992 45.6098 5.69084C45.0753 6.17176 44.808 7.04008 44.808 8.2958V9.21756H48.6967V13.8263Z" fill="white"/>
<path d="M62.3212 31.7805C60.1831 31.7805 58.2588 31.313 56.5483 30.3779C54.8378 29.416 53.4881 28.0668 52.4993 26.3302C51.5371 24.5935 51.056 22.5897 51.056 20.3187C51.056 18.0477 51.5505 16.0439 52.5393 14.3073C53.5549 12.5706 54.9314 11.2347 56.6686 10.2996C58.4058 9.33779 60.3434 8.85687 62.4815 8.85687C64.6196 8.85687 66.5573 9.33779 68.2945 10.2996C70.0317 11.2347 71.3947 12.5706 72.3836 14.3073C73.3992 16.0439 73.907 18.0477 73.907 20.3187C73.907 22.5897 73.3858 24.5935 72.3435 26.3302C71.3279 28.0668 69.9382 29.416 68.1742 30.3779C66.437 31.313 64.486 31.7805 62.3212 31.7805ZM62.3212 26.8912C63.3368 26.8912 64.2855 26.6508 65.1675 26.1698C66.0762 25.6622 66.7978 24.9141 67.3323 23.9256C67.8669 22.937 68.1341 21.7347 68.1341 20.3187C68.1341 18.208 67.5729 16.5916 66.4504 15.4695C65.3546 14.3206 64.0049 13.7462 62.4013 13.7462C60.7978 13.7462 59.4481 14.3206 58.3523 15.4695C57.2833 16.5916 56.7487 18.208 56.7487 20.3187C56.7487 22.4294 57.2699 24.0592 58.3122 25.208C59.3813 26.3302 60.7176 26.8912 62.3212 26.8912Z" fill="white"/>
<path d="M94.4657 3.44657V23.084C94.4657 25.8092 93.6772 27.9332 92.1004 29.4561C90.5235 30.9523 88.4122 31.7004 85.7663 31.7004C83.0936 31.7004 80.9288 30.9256 79.2718 29.376C77.6415 27.8263 76.8263 25.6622 76.8263 22.8836H82.4389C82.4656 24.0859 82.7462 25.021 83.2807 25.6889C83.842 26.3569 84.6438 26.6908 85.6861 26.6908C86.7017 26.6908 87.4768 26.3702 88.0113 25.729C88.5458 25.0878 88.8131 24.2061 88.8131 23.084V3.44657H94.4657Z" fill="white"/>
<path d="M106.751 12.6641C107.472 11.4885 108.408 10.5668 109.557 9.89886C110.733 9.23092 112.069 8.89695 113.566 8.89695V14.7882H112.082C110.319 14.7882 108.982 15.2023 108.074 16.0305C107.192 16.8588 106.751 18.3015 106.751 20.3588V31.4198H101.138V9.21756H106.751V12.6641Z" fill="white"/>
<path d="M118.514 4.24809C118.22 4.24809 117.966 4.15458 117.752 3.96756C117.565 3.75382 117.471 3.48664 117.471 3.16603C117.471 2.84542 117.565 2.5916 117.752 2.40458C117.966 2.19084 118.22 2.08397 118.514 2.08397C118.808 2.08397 119.048 2.19084 119.235 2.40458C119.449 2.5916 119.556 2.84542 119.556 3.16603C119.556 3.48664 119.449 3.75382 119.235 3.96756C119.048 4.15458 118.808 4.24809 118.514 4.24809ZM118.915 9.77863V31.4198H118.113V9.77863H118.915Z" fill="white"/>
<path d="M135.173 9.29771C137.712 9.29771 139.797 10.0859 141.427 11.6622C143.057 13.2385 143.872 15.6164 143.872 18.7958V31.4198H143.111V18.7156C143.111 15.8836 142.402 13.7328 140.986 12.2634C139.569 10.7672 137.632 10.0191 135.173 10.0191C132.607 10.0191 130.549 10.8607 128.999 12.5439C127.449 14.2004 126.674 16.6584 126.674 19.9179V31.4198H125.872V9.77863H126.674V15.4695C127.182 13.4656 128.197 11.9427 129.721 10.9008C131.244 9.83206 133.062 9.29771 135.173 9.29771Z" fill="white"/>
<path d="M157.598 31.7004C155.22 31.7004 153.295 31.2195 151.825 30.2576C150.382 29.2958 149.54 27.8397 149.3 25.8893H150.102C150.262 27.4924 150.97 28.7481 152.226 29.6565C153.509 30.5382 155.313 30.979 157.638 30.979C158.814 30.979 159.843 30.7519 160.725 30.2977C161.634 29.8435 162.329 29.2424 162.81 28.4943C163.291 27.7195 163.532 26.8912 163.532 26.0095C163.532 25.0477 163.251 24.2729 162.69 23.6851C162.155 23.0706 161.474 22.6031 160.645 22.2824C159.843 21.9618 158.734 21.6145 157.318 21.2405C155.741 20.8397 154.458 20.4389 153.469 20.0382C152.507 19.6374 151.678 19.0229 150.984 18.1947C150.315 17.3664 149.981 16.271 149.981 14.9084C149.981 13.9466 150.275 13.0515 150.863 12.2233C151.451 11.395 152.253 10.7405 153.269 10.2595C154.311 9.75191 155.474 9.49809 156.756 9.49809C158.948 9.49809 160.712 10.0458 162.048 11.1412C163.385 12.2366 164.106 13.7595 164.213 15.7099H163.411C163.331 14.1069 162.716 12.7977 161.567 11.7824C160.445 10.7405 158.841 10.2195 156.756 10.2195C155.634 10.2195 154.618 10.4332 153.71 10.8607C152.801 11.2882 152.079 11.8626 151.545 12.584C151.037 13.3053 150.783 14.0802 150.783 14.9084C150.783 16.084 151.09 17.0324 151.705 17.7538C152.32 18.4752 153.068 19.0095 153.95 19.3569C154.859 19.7042 156.062 20.0782 157.558 20.479C159.082 20.9065 160.271 21.2939 161.126 21.6412C162.008 21.9885 162.757 22.5229 163.371 23.2443C163.986 23.9389 164.293 24.8607 164.293 26.0095C164.293 27.0782 163.999 28.0534 163.411 28.9351C162.823 29.7901 162.022 30.4714 161.006 30.979C159.99 31.4599 158.854 31.7004 157.598 31.7004Z" fill="white"/>
<path d="M170.528 4.24809C170.234 4.24809 169.98 4.15458 169.766 3.96756C169.579 3.75382 169.486 3.48664 169.486 3.16603C169.486 2.84542 169.579 2.5916 169.766 2.40458C169.98 2.19084 170.234 2.08397 170.528 2.08397C170.822 2.08397 171.063 2.19084 171.25 2.40458C171.464 2.5916 171.57 2.84542 171.57 3.16603C171.57 3.48664 171.464 3.75382 171.25 3.96756C171.063 4.15458 170.822 4.24809 170.528 4.24809ZM170.929 9.77863V31.4198H170.127V9.77863H170.929Z" fill="white"/>
<path d="M187.428 9.49809C189.914 9.49809 192.012 10.1393 193.722 11.4218C195.459 12.7042 196.622 14.334 197.21 16.3111V9.77863H197.971V32.2214C197.971 34.2252 197.531 35.9618 196.649 37.4313C195.767 38.9275 194.591 40.063 193.121 40.8378C191.677 41.6126 190.101 42 188.39 42C185.771 42 183.593 41.3588 181.856 40.0763C180.145 38.8206 178.969 37.1107 178.328 34.9466H179.129C179.744 36.8969 180.827 38.4332 182.377 39.5553C183.954 40.7042 185.958 41.2786 188.39 41.2786C190.047 41.2786 191.544 40.9046 192.88 40.1565C194.216 39.4084 195.272 38.3531 196.047 36.9905C196.822 35.6279 197.21 34.0382 197.21 32.2214V24.8473C196.622 26.8511 195.459 28.4943 193.722 29.7767C192.012 31.0592 189.914 31.7004 187.428 31.7004C185.37 31.7004 183.539 31.2595 181.936 30.3779C180.332 29.4695 179.089 28.187 178.207 26.5305C177.325 24.8473 176.884 22.8702 176.884 20.5992C176.884 18.3282 177.325 16.3645 178.207 14.708C179.089 13.0248 180.332 11.7424 181.936 10.8607C183.539 9.95229 185.37 9.49809 187.428 9.49809ZM197.21 20.5992C197.21 18.542 196.782 16.7385 195.927 15.1889C195.098 13.6126 193.936 12.3969 192.439 11.542C190.969 10.6603 189.299 10.2195 187.428 10.2195C185.45 10.2195 183.726 10.6336 182.256 11.4618C180.813 12.2901 179.691 13.4924 178.889 15.0687C178.087 16.6183 177.686 18.4618 177.686 20.5992C177.686 22.7366 178.087 24.5935 178.889 26.1698C179.691 27.7195 180.813 28.9084 182.256 29.7366C183.726 30.5649 185.45 30.979 187.428 30.979C189.299 30.979 190.969 30.5515 192.439 29.6966C193.936 28.8149 195.098 27.5992 195.927 26.0496C196.782 24.4733 197.21 22.6565 197.21 20.5992Z" fill="white"/>
<path d="M214.209 9.29771C216.748 9.29771 218.832 10.0859 220.463 11.6622C222.093 13.2385 222.908 15.6164 222.908 18.7958V31.4198H222.146V18.7156C222.146 15.8836 221.438 13.7328 220.022 12.2634C218.605 10.7672 216.667 10.0191 214.209 10.0191C211.643 10.0191 209.585 10.8607 208.035 12.5439C206.485 14.2004 205.71 16.6584 205.71 19.9179V31.4198H204.908V1.76336H205.71V15.4695C206.217 13.4656 207.233 11.9427 208.757 10.9008C210.28 9.83206 212.097 9.29771 214.209 9.29771Z" fill="white"/>
<path d="M231.382 10.5802V25.729C231.382 27.0382 231.529 28.0401 231.823 28.7347C232.117 29.4294 232.585 29.9237 233.226 30.2176C233.868 30.4847 234.763 30.6183 235.912 30.6183H238.197V31.4198H235.832C233.961 31.4198 232.612 30.9924 231.783 30.1374C230.981 29.2824 230.58 27.813 230.58 25.729V10.5802H227.053V9.77863H230.58V4.24809H231.382V9.77863H238.197V10.5802H231.382Z" fill="white"/>
<path d="M250.305 31.7004C247.926 31.7004 246.002 31.2195 244.532 30.2576C243.089 29.2958 242.247 27.8397 242.007 25.8893H242.808C242.969 27.4924 243.677 28.7481 244.933 29.6565C246.216 30.5382 248.02 30.979 250.345 30.979C251.521 30.979 252.55 30.7519 253.432 30.2977C254.341 29.8435 255.036 29.2424 255.517 28.4943C255.998 27.7195 256.238 26.8912 256.238 26.0095C256.238 25.0477 255.958 24.2729 255.396 23.6851C254.862 23.0706 254.18 22.6031 253.352 22.2824C252.55 21.9618 251.441 21.6145 250.024 21.2405C248.448 20.8397 247.165 20.4389 246.176 20.0382C245.214 19.6374 244.385 19.0229 243.69 18.1947C243.022 17.3664 242.688 16.271 242.688 14.9084C242.688 13.9466 242.982 13.0515 243.57 12.2233C244.158 11.395 244.96 10.7405 245.975 10.2595C247.018 9.75191 248.18 9.49809 249.463 9.49809C251.655 9.49809 253.419 10.0458 254.755 11.1412C256.091 12.2366 256.813 13.7595 256.92 15.7099H256.118C256.038 14.1069 255.423 12.7977 254.274 11.7824C253.151 10.7405 251.548 10.2195 249.463 10.2195C248.341 10.2195 247.325 10.4332 246.416 10.8607C245.508 11.2882 244.786 11.8626 244.252 12.584C243.744 13.3053 243.49 14.0802 243.49 14.9084C243.49 16.084 243.797 17.0324 244.412 17.7538C245.027 18.4752 245.775 19.0095 246.657 19.3569C247.566 19.7042 248.768 20.0782 250.265 20.479C251.788 20.9065 252.978 21.2939 253.833 21.6412C254.715 21.9885 255.463 22.5229 256.078 23.2443C256.693 23.9389 257 24.8607 257 26.0095C257 27.0782 256.706 28.0534 256.118 28.9351C255.53 29.7901 254.728 30.4714 253.713 30.979C252.697 31.4599 251.561 31.7004 250.305 31.7004Z" fill="white"/>
<path d="M7.76735 46.7322C7.76735 46.3624 7.64457 46.1775 7.39901 46.1775C7.15827 46.1775 6.85734 46.2265 6.49622 46.3244C6.13992 46.4222 5.75713 46.5745 5.34786 46.7812C4.41377 47.2543 3.56875 47.9069 2.81281 48.7389C2.7117 48.8368 2.57448 48.8858 2.40114 48.8858C2.23262 48.8858 2.09058 48.8396 1.97502 48.7471C1.85946 48.6492 1.80168 48.5241 1.80168 48.3719C1.80168 48.2196 1.83057 48.0592 1.88835 47.8906C1.94613 47.7165 2.00632 47.5126 2.06891 47.2788C2.1315 47.0395 2.1965 46.8029 2.26391 46.5691C2.43725 46.0089 2.59855 45.6391 2.74781 45.4597C3.02226 45.2041 3.75654 44.9213 4.95063 44.6113C6.27473 44.2687 7.56994 44.0974 8.83626 44.0974C9.3659 44.0974 9.80406 44.3176 10.1507 44.7581C10.4493 45.1388 10.5985 45.5385 10.5985 45.9573C10.5985 46.3162 10.3626 47.1673 9.89073 48.5105C9.14442 50.6532 8.38126 52.3282 7.60124 53.5355C7.38457 53.8727 7.17031 54.1473 6.95845 54.3594C6.6503 54.6313 6.24584 54.8597 5.74509 55.0446C4.89767 55.3655 4.34636 55.5259 4.09117 55.5259C3.8408 55.5259 3.59283 55.4878 3.34727 55.4117C3.10171 55.341 2.86337 55.2485 2.63225 55.1343C2.40595 55.0147 2.1941 54.8815 1.99669 54.7346C1.79927 54.5824 1.62594 54.4328 1.47668 54.286C1.15889 53.9651 1 53.7041 1 53.5029C1 53.3125 1.20463 53.0053 1.6139 52.5811C2.0328 52.146 2.37706 51.9285 2.6467 51.9285C2.82967 51.9285 3.05115 52.0073 3.31116 52.165L3.86728 52.524C3.98765 52.5947 4.09358 52.63 4.18506 52.63C4.28136 52.63 4.41377 52.5539 4.58229 52.4016C4.75081 52.2439 4.93137 52.0372 5.12397 51.7816C5.31657 51.5261 5.51398 51.2324 5.7162 50.9007C5.92324 50.5689 6.12306 50.229 6.31566 49.881C6.51307 49.5275 6.69845 49.1767 6.87178 48.8287C7.04993 48.4806 7.20401 48.1625 7.33401 47.8743C7.62291 47.2489 7.76735 46.8682 7.76735 46.7322Z" fill="#7CB124"/>
<path d="M23.1149 49.1387C23.3315 49.1387 23.4399 49.2637 23.4399 49.5139C23.4399 49.9109 23.2088 50.471 22.7465 51.1943C22.4239 51.7001 21.7595 52.4016 20.7532 53.2989C19.5543 54.3594 18.5913 54.8896 17.8642 54.8896C17.3153 54.8896 16.9012 54.6286 16.622 54.1065C16.4535 53.7911 16.3162 53.3288 16.2103 52.7197L15.5675 53.2418C13.8004 54.6231 12.4812 55.3138 11.6097 55.3138C10.8826 55.3138 10.3 55.0147 9.86184 54.4165C9.47665 53.8781 9.28405 53.2337 9.28405 52.4832C9.28405 51.6566 9.53443 51.004 10.0352 50.5254C11.0559 49.5574 12.3247 48.7607 13.8414 48.1353C14.4577 47.8797 14.8477 47.7519 15.0114 47.7519C15.1751 47.7519 15.3244 47.7845 15.4592 47.8498C15.5988 47.9096 15.736 47.9885 15.8708 48.0864C16.1886 48.3311 16.3475 48.5676 16.3475 48.796C16.3475 48.9809 16.2464 49.1305 16.0442 49.2447C15.9816 49.2828 15.8757 49.3344 15.7264 49.3997C15.5771 49.4649 15.3942 49.5547 15.1775 49.6689C14.5949 49.9789 14.0267 50.3541 13.473 50.7946C13.0782 51.1753 12.8808 51.4798 12.8808 51.7082C12.8808 51.9312 13.0204 52.0427 13.2997 52.0427C13.5308 52.0427 13.993 51.8116 14.6864 51.3493C14.6864 51.3493 14.891 51.2079 15.3003 50.9251C15.7384 50.6151 16.0899 50.3324 16.3547 50.0768C16.3547 50.0768 16.4655 49.6689 16.687 48.8531C17.0962 47.3957 17.5513 46.1911 18.052 45.2394C18.9379 43.3197 19.8287 42.3599 20.7243 42.3599C21.0517 42.3599 21.3117 42.4278 21.5043 42.5638C21.851 42.8085 22.0243 43.0804 22.0243 43.3795C22.0243 43.6732 21.9762 43.9859 21.8799 44.3176C21.7836 44.6494 21.656 44.9784 21.4971 45.3047C21.343 45.631 21.1648 45.9546 20.9626 46.2754L19.7276 48.119C19.5205 48.4181 19.3376 48.709 19.1787 48.9918C18.8994 49.6716 18.7598 50.2535 18.7598 50.7375C18.7598 51.4336 18.9837 51.7816 19.4315 51.7816C19.6867 51.7816 20.1465 51.4798 20.8109 50.8762L21.6632 50.0604C22.0628 49.658 22.4576 49.3752 22.8477 49.2121C22.9584 49.1631 23.0475 49.1387 23.1149 49.1387Z" fill="#7CB124"/>
<path d="M31.8395 49.1713C32.0706 49.1713 32.1862 49.3181 32.1862 49.6118C32.1862 49.8076 32.126 50.055 32.0056 50.3541C31.89 50.6478 31.7215 50.9251 31.5 51.1862C31.2786 51.4418 31.0234 51.7082 30.7345 51.9856C30.4504 52.2629 30.1158 52.5539 29.7306 52.8584C29.3502 53.163 28.9289 53.4648 28.4667 53.7639C28.0044 54.063 27.5133 54.3322 26.9933 54.5715C25.8425 55.1044 24.7279 55.3709 23.6493 55.3709C22.826 55.3709 22.1062 55.1289 21.4898 54.6449C20.8446 54.1391 20.522 53.5246 20.522 52.8013C20.522 51.6647 21.0637 50.5852 22.1471 49.5628C23.0812 48.6818 24.1814 47.9993 25.4477 47.5153C26.2181 47.2217 26.8705 47.0748 27.405 47.0748C27.8383 47.0748 28.2042 47.1945 28.5028 47.4338C28.8205 47.6948 28.9794 48.0456 28.9794 48.4861C28.9794 49.1767 28.4955 49.9408 27.5277 50.7783C27.3737 50.9142 27.234 51.0285 27.1088 51.1209L26.8488 51.3167C26.3673 51.6974 25.6355 52.1243 24.6532 52.5974C24.9566 52.7768 25.2383 52.8666 25.4983 52.8666C25.7631 52.8666 25.999 52.8312 26.206 52.7605C26.4179 52.6898 26.6562 52.5892 26.9211 52.4587C27.1859 52.3282 27.4676 52.1732 27.7661 51.9937C28.0694 51.8088 28.3752 51.6076 28.6833 51.3901C29.3719 50.9061 29.9689 50.4112 30.4745 49.9054C30.7393 49.6281 31.0763 49.4078 31.4856 49.2447C31.6204 49.1958 31.7384 49.1713 31.8395 49.1713ZM23.8732 51.4635L24.2705 51.2351C24.4005 51.159 24.516 51.0883 24.6171 51.023C25.5897 50.3922 26.1435 50.0033 26.2783 49.8565C26.4131 49.7097 26.4805 49.6091 26.4805 49.5547C26.4805 49.4949 26.4661 49.4269 26.4372 49.3507C26.4083 49.2746 26.3698 49.2066 26.3216 49.1468C26.206 48.9945 26.0833 48.9184 25.9533 48.9184C25.8233 48.9184 25.6788 48.9456 25.5199 49C25.3658 49.0544 25.2094 49.1305 25.0505 49.2284C24.8916 49.3208 24.7375 49.435 24.5882 49.571C24.4438 49.7015 24.3162 49.8429 24.2055 49.9952C23.9503 50.3378 23.8227 50.6342 23.8227 50.8843C23.8227 51.1345 23.8395 51.3276 23.8732 51.4635Z" fill="#7CB124"/>
<path d="M36.7218 45.737C36.5822 45.8675 36.4305 45.9763 36.2668 46.0633C36.1031 46.1449 35.9201 46.1857 35.7179 46.1857C35.5157 46.1857 35.3207 46.1476 35.1329 46.0715C34.9451 45.9953 34.7814 45.8893 34.6418 45.7533C34.3384 45.4597 34.1868 45.0844 34.1868 44.6276C34.1868 43.9261 34.7068 43.404 35.7468 43.0614C36.0983 42.9418 36.3872 42.8819 36.6135 42.8819C36.8398 42.8819 37.0083 42.9118 37.119 42.9717C37.2346 43.0261 37.3285 43.0995 37.4007 43.1919C37.5452 43.3768 37.6174 43.5672 37.6174 43.7629C37.6174 43.9533 37.5957 44.1273 37.5524 44.285C37.5139 44.4427 37.4561 44.6059 37.379 44.7745C37.302 44.943 37.2081 45.1116 37.0974 45.2802C36.9866 45.4488 36.8614 45.6011 36.7218 45.737ZM34.9018 54.7183C34.5358 54.9304 34.1795 55.099 33.8329 55.2241C33.4862 55.3546 33.1443 55.4198 32.8073 55.4198C32.4751 55.4198 32.1284 55.3301 31.7673 55.1507C31.411 54.9657 31.0932 54.721 30.8139 54.4165C30.1928 53.7367 29.8822 52.9808 29.8822 52.1487C29.8822 51.3819 30.0845 50.6043 30.4889 49.8157C30.8597 49.1033 31.3315 48.5051 31.9045 48.0211C32.4775 47.5371 33.0095 47.2951 33.5006 47.2951C34.2036 47.2951 34.5792 47.5181 34.6273 47.964C34.6418 48.0999 34.649 48.2577 34.649 48.4371C34.649 48.6166 34.6105 48.8232 34.5334 49.0571C34.4612 49.2855 34.3649 49.5166 34.2445 49.7505C34.129 49.9789 33.999 50.2046 33.8545 50.4275C33.7149 50.6451 33.5801 50.8435 33.4501 51.023C33.1997 51.3656 32.9999 51.6131 32.8506 51.7653C32.8506 51.9502 32.9734 52.1406 33.219 52.3364C33.4501 52.5213 33.6451 52.6137 33.804 52.6137C33.9677 52.6137 34.1579 52.5702 34.3745 52.4832C34.596 52.3962 34.8223 52.2792 35.0534 52.1324C35.2894 51.9856 35.5277 51.817 35.7685 51.6267C36.014 51.4363 36.2548 51.2405 36.4907 51.0393L37.8124 49.8728C38.3372 49.4432 38.7633 49.2284 39.0907 49.2284C39.2207 49.2284 39.3195 49.2828 39.3869 49.3915C39.4591 49.4949 39.4952 49.6172 39.4952 49.7586C39.4952 49.9 39.4326 50.0958 39.3074 50.3459C39.1822 50.5907 39.0089 50.8626 38.7874 51.1617C38.5707 51.4608 38.3155 51.7735 38.0218 52.0998C37.7281 52.4261 37.4103 52.7469 37.0685 53.0624C36.7266 53.3778 36.3703 53.6796 35.9996 53.9678C35.6336 54.2506 35.2677 54.5008 34.9018 54.7183Z" fill="#7CB124"/>
<path d="M50.3721 49.0408C50.5262 49.0408 50.6032 49.1876 50.6032 49.4813C50.6032 49.987 50.2902 50.6423 49.6643 51.4472L49.2526 51.9203C48.0056 53.3288 46.8307 54.2669 45.7281 54.7346C45.0444 55.0229 44.5533 55.0093 44.2547 54.6938C44.0092 54.4274 43.8142 53.9977 43.6697 53.405L43.4964 52.6953L41.958 53.7639L41.0697 54.3349C40.0104 54.9875 39.2159 55.3138 38.6863 55.3138C38.0074 55.3138 37.4416 55.0174 36.989 54.4246C36.5557 53.8645 36.339 53.2146 36.339 52.475C36.339 51.7463 36.5966 51.0964 37.1118 50.5254C37.8485 49.7097 39.0113 48.9619 40.6002 48.2821C42.1025 47.6459 43.3158 47.3277 44.2403 47.3277C44.5533 47.3277 44.7097 47.5017 44.7097 47.8498C44.7097 48.0891 44.6688 48.2685 44.587 48.3882C44.5051 48.5078 44.3366 48.6302 44.0814 48.7553L43.1714 49.1958C41.8232 49.832 40.8362 50.4928 40.2102 51.178C40.0321 51.3683 39.943 51.5532 39.943 51.7327C39.943 51.9122 40.0706 52.0019 40.3258 52.0019C40.5761 52.0019 41.1587 51.6974 42.0736 51.0883L42.673 50.6886C43.6023 50.0577 44.3799 49.7423 45.0059 49.7423C45.5355 49.7423 45.887 50.0061 46.0603 50.5336C46.1037 50.675 46.1446 50.8191 46.1831 50.9659C46.2216 51.1073 46.2601 51.2351 46.2987 51.3493C46.3853 51.6158 46.4624 51.749 46.5298 51.749C46.602 51.749 46.7031 51.711 46.8331 51.6348C46.9631 51.5532 47.1052 51.4526 47.2592 51.333C47.4181 51.2079 47.5818 51.072 47.7504 50.9251L48.6243 50.1339C49.3995 49.4051 49.9821 49.0408 50.3721 49.0408Z" fill="#7CB124"/>
<path d="M53.456 47.2217C53.5042 47.3304 53.5283 47.4745 53.5283 47.654C53.5283 47.828 53.4488 48.0265 53.2899 48.2495C53.4151 48.3963 53.574 48.5676 53.7666 48.7634C53.964 48.9538 54.1542 49.1631 54.3372 49.3915C54.7801 49.9517 55.0016 50.4873 55.0016 50.9985C55.0016 51.3357 54.797 51.7463 54.3877 52.2303C54.2625 52.3826 54.1253 52.524 53.976 52.6545C54.4768 52.437 55.0787 52.0046 55.7816 51.3575L56.6266 50.5744C57.1178 50.1121 57.4452 49.8456 57.6089 49.7749C57.7774 49.7042 57.9291 49.6689 58.0639 49.6689C58.1987 49.6689 58.3287 49.707 58.4539 49.7831C58.5839 49.8592 58.6489 49.9843 58.6489 50.1583C58.6489 50.3269 58.6248 50.4928 58.5767 50.6559C58.5285 50.8136 58.4708 50.9605 58.4033 51.0964C58.307 51.2922 58.1674 51.4934 57.9845 51.7001C57.4789 52.2385 56.9878 52.7333 56.5111 53.1847C56.0392 53.6307 55.5505 54.0141 55.0449 54.3349C53.976 55.0093 52.7916 55.3464 51.4915 55.3464C50.7645 55.3464 50.1337 55.1371 49.5993 54.7183C49.3778 54.5443 49.2069 54.3648 49.0865 54.1799C48.9709 53.9896 48.9132 53.8427 48.9132 53.7394C48.9132 53.6307 48.9445 53.5192 49.0071 53.405C49.0696 53.2853 49.1539 53.163 49.2598 53.0379C49.3658 52.9128 49.4861 52.7877 49.621 52.6626C49.7606 52.5376 49.9026 52.4261 50.0471 52.3282C50.3841 52.1052 50.6345 51.9937 50.7982 51.9937C50.9667 51.9937 51.0943 52.0182 51.181 52.0672C51.2677 52.1107 51.3471 52.1596 51.4193 52.214C51.6167 52.3663 51.7564 52.4424 51.8382 52.4424C52.0356 52.4424 52.1343 52.2901 52.1343 51.9856C52.1343 51.7028 52.0019 51.3629 51.7371 50.9659C51.6312 50.8028 51.5204 50.6423 51.4049 50.4846C51.2893 50.3269 51.193 50.1719 51.116 50.0197C50.9619 50.2209 50.7693 50.4275 50.5382 50.6396L49.8376 51.3085C49.3513 51.7816 48.9011 52.0073 48.487 51.9856C48.2463 51.9638 48.1259 51.662 48.1259 51.0801C48.1259 50.9768 48.1331 50.8762 48.1476 50.7783C48.1717 50.6097 48.3185 50.4058 48.5882 50.1665C48.8578 49.9272 49.0528 49.7641 49.1732 49.677C49.2984 49.5846 49.4043 49.503 49.491 49.4323L50.2565 48.845C50.2565 48.2903 50.5406 47.7818 51.1088 47.3196C51.648 46.8845 52.1825 46.667 52.7121 46.667C53.0492 46.667 53.2971 46.8519 53.456 47.2217Z" fill="#7CB124"/>
<path d="M66.1457 53.1276C66.3046 53.0515 66.5261 52.9318 66.8102 52.7687C68.5484 51.7626 69.5017 51.2079 69.6702 51.1046L69.9736 50.917C70.2865 50.6886 70.431 50.5091 70.4069 50.3786C70.354 50.1012 70.2215 49.9897 70.0097 50.0441C69.7978 50.0931 69.5763 50.161 69.3452 50.2481C69.1189 50.3351 68.8782 50.4411 68.623 50.5662C68.0885 50.8164 67.6191 51.0665 67.2146 51.3167C65.799 52.2357 64.9468 52.7932 64.6579 52.9889C64.4509 53.5165 64.2655 54.0412 64.1018 54.5633L63.2279 57.3531C62.9534 58.2178 62.6766 58.8024 62.3973 59.107C62.2481 59.2756 62.0819 59.3599 61.899 59.3599C61.4464 59.3599 61.0901 59.1804 60.8301 58.8215C60.5701 58.468 60.4401 58.0166 60.4401 57.4673C60.4401 56.9235 60.5026 56.3851 60.6278 55.8522C60.753 55.3247 60.9264 54.789 61.1478 54.2452C61.5956 53.1467 62.1951 52.1215 62.9462 51.1698C63.4036 49.7831 64.1644 48.4371 65.2285 47.1319C65.8785 46.338 66.4828 45.7778 67.0413 45.4515C67.3206 45.2884 67.5589 45.2068 67.7563 45.2068C67.9537 45.2068 68.103 45.2585 68.2041 45.3618C68.3052 45.4597 68.3558 45.5848 68.3558 45.737C68.3558 45.8839 68.3148 46.0715 68.233 46.2999C68.1511 46.5283 68.0404 46.7839 67.9008 47.0667C67.7611 47.3495 67.5974 47.6513 67.4096 47.9721L66.8102 48.9592C66.762 49.0408 66.738 49.1142 66.738 49.1794C66.738 49.2828 66.7933 49.3344 66.9041 49.3344C67.0293 49.3344 67.2604 49.2447 67.5974 49.0652L68.753 48.4616C69.7641 47.945 70.7319 47.6866 71.6564 47.6866C72.1379 47.6866 72.5905 47.945 73.0142 48.4616C73.4427 48.9837 73.657 49.5438 73.657 50.142C73.657 51.0665 73.3223 51.7789 72.6531 52.2792L71.7575 52.9482C71.4349 53.1766 71.1027 53.4022 70.7608 53.6252L69.7208 54.2697C68.5508 54.9549 67.6456 55.2975 67.0052 55.2975C66.3696 55.2975 65.9074 55.2078 65.6185 55.0283C65.3296 54.8488 65.1852 54.5959 65.1852 54.2697C65.1852 53.8292 65.5053 53.4485 66.1457 53.1276Z" fill="#7CB124"/>
<path d="M85.9928 49.0408C86.1469 49.0408 86.2239 49.1876 86.2239 49.4813C86.2239 49.987 85.9109 50.6423 85.285 51.4472L84.8733 51.9203C83.6263 53.3288 82.4514 54.2669 81.3488 54.7346C80.6651 55.0229 80.174 55.0093 79.8754 54.6938C79.6299 54.4274 79.4349 53.9977 79.2904 53.405L79.1171 52.6953L77.5787 53.7639L76.6904 54.3349C75.6311 54.9875 74.8366 55.3138 74.307 55.3138C73.6281 55.3138 73.0623 55.0174 72.6097 54.4246C72.1764 53.8645 71.9597 53.2146 71.9597 52.475C71.9597 51.7463 72.2173 51.0964 72.7325 50.5254C73.4692 49.7097 74.632 48.9619 76.2209 48.2821C77.7232 47.6459 78.9365 47.3277 79.861 47.3277C80.174 47.3277 80.3304 47.5017 80.3304 47.8498C80.3304 48.0891 80.2895 48.2685 80.2077 48.3882C80.1258 48.5078 79.9573 48.6302 79.7021 48.7553L78.7921 49.1958C77.4439 49.832 76.4568 50.4928 75.8309 51.178C75.6528 51.3683 75.5637 51.5532 75.5637 51.7327C75.5637 51.9122 75.6913 52.0019 75.9465 52.0019C76.1968 52.0019 76.7794 51.6974 77.6943 51.0883L78.2937 50.6886C79.223 50.0577 80.0006 49.7423 80.6266 49.7423C81.1562 49.7423 81.5077 50.0061 81.681 50.5336C81.7244 50.675 81.7653 50.8191 81.8038 50.9659C81.8423 51.1073 81.8808 51.2351 81.9194 51.3493C82.006 51.6158 82.0831 51.749 82.1505 51.749C82.2227 51.749 82.3238 51.711 82.4538 51.6348C82.5838 51.5532 82.7259 51.4526 82.8799 51.333C83.0388 51.2079 83.2025 51.072 83.3711 50.9251L84.245 50.1339C85.0202 49.4051 85.6028 49.0408 85.9928 49.0408Z" fill="#7CB124"/>
<path d="M84.1077 52.475C84.0163 52.475 83.9272 52.4506 83.8405 52.4016C83.749 52.3527 83.6648 52.2738 83.5877 52.165C83.4192 51.9258 83.3349 51.5995 83.3349 51.1862C83.3349 50.7457 83.5685 50.1964 84.0355 49.5384C84.4881 48.9021 85.0154 48.3528 85.6172 47.8906C86.2624 47.3903 86.8161 47.1401 87.2784 47.1401C87.6876 47.1401 87.9645 47.2706 88.1089 47.5316L88.21 47.7111C88.2871 47.8471 88.3641 47.915 88.4412 47.915C88.5182 47.915 88.6386 47.9069 88.8023 47.8906L89.8279 47.809C89.9867 47.7927 90.1119 47.7845 90.2034 47.7845C90.2949 47.7845 90.3984 47.8226 90.514 47.8987C90.6343 47.9694 90.7403 48.0646 90.8318 48.1842C91.034 48.4562 91.1351 48.7553 91.1351 49.0816C91.1351 49.4187 90.8053 49.949 90.1456 50.6722L89.669 51.2106C89.3271 51.6076 89.1562 51.8578 89.1562 51.9611C89.1562 52.0644 89.1995 52.1569 89.2862 52.2385C89.3728 52.3146 89.4667 52.3527 89.5678 52.3527C89.669 52.3527 89.7821 52.3228 89.9073 52.2629C90.0373 52.1977 90.1962 52.1052 90.384 51.9856C90.5718 51.8605 90.786 51.711 91.0268 51.5369C91.6864 51.0475 92.127 50.7103 92.3485 50.5254L92.9479 50.0441C93.3572 49.7178 93.6485 49.5547 93.8218 49.5547C93.9952 49.5547 94.1372 49.5982 94.2479 49.6852C94.3587 49.7668 94.4141 49.9109 94.4141 50.1175C94.4141 50.3242 94.3202 50.6015 94.1324 50.9496C93.9446 51.2976 93.74 51.5995 93.5185 51.8551C93.3018 52.1107 93.09 52.3472 92.8829 52.5648C92.6759 52.7823 92.4303 53.0189 92.1462 53.2745C91.867 53.5246 91.5564 53.7802 91.2145 54.0412C90.8727 54.2968 90.5116 54.528 90.1312 54.7346C89.2693 55.2078 88.4773 55.4443 87.755 55.4443C86.7006 55.4443 86.0578 55.1371 85.8267 54.5225C85.7544 54.3376 85.7183 54.131 85.7183 53.9026C85.7183 53.6742 85.7568 53.4294 85.8339 53.1684C85.9109 52.9019 86.012 52.6382 86.1372 52.3771C86.3876 51.8605 86.6837 51.4037 87.0256 51.0067C87.3145 50.6641 87.4589 50.4602 87.4589 50.3949C87.4589 50.2916 87.406 50.2263 87.3 50.1991C87.1989 50.1719 87.0472 50.1583 86.845 50.1583C86.7583 50.1583 86.573 50.2997 86.2889 50.5825L85.5811 51.3167C84.83 52.0889 84.3389 52.475 84.1077 52.475Z" fill="#7CB124"/>
<path d="M105.638 49.0408C105.792 49.0408 105.869 49.1876 105.869 49.4813C105.869 49.987 105.556 50.6423 104.93 51.4472L104.518 51.9203C103.271 53.3288 102.096 54.2669 100.994 54.7346C100.31 55.0229 99.8188 55.0093 99.5203 54.6938C99.2747 54.4274 99.0797 53.9977 98.9352 53.405L98.7619 52.6953L97.2235 53.7639L96.3352 54.3349C95.2759 54.9875 94.4815 55.3138 93.9518 55.3138C93.2729 55.3138 92.7072 55.0174 92.2546 54.4246C91.8212 53.8645 91.6046 53.2146 91.6046 52.475C91.6046 51.7463 91.8622 51.0964 92.3773 50.5254C93.114 49.7097 94.2768 48.9619 95.8657 48.2821C97.368 47.6459 98.5814 47.3277 99.5058 47.3277C99.8188 47.3277 99.9753 47.5017 99.9753 47.8498C99.9753 48.0891 99.9343 48.2685 99.8525 48.3882C99.7706 48.5078 99.6021 48.6302 99.3469 48.7553L98.4369 49.1958C97.0887 49.832 96.1017 50.4928 95.4757 51.178C95.2976 51.3683 95.2085 51.5532 95.2085 51.7327C95.2085 51.9122 95.3361 52.0019 95.5913 52.0019C95.8417 52.0019 96.4243 51.6974 97.3391 51.0883L97.9386 50.6886C98.8678 50.0577 99.6455 49.7423 100.271 49.7423C100.801 49.7423 101.153 50.0061 101.326 50.5336C101.369 50.675 101.41 50.8191 101.449 50.9659C101.487 51.1073 101.526 51.2351 101.564 51.3493C101.651 51.6158 101.728 51.749 101.795 51.749C101.868 51.749 101.969 51.711 102.099 51.6348C102.229 51.5532 102.371 51.4526 102.525 51.333C102.684 51.2079 102.847 51.072 103.016 50.9251L103.89 50.1339C104.665 49.4051 105.248 49.0408 105.638 49.0408Z" fill="#7CB124"/>
<path d="M122.841 49.0408C122.995 49.0408 123.072 49.1876 123.072 49.4813C123.072 49.987 122.759 50.6423 122.133 51.4472L121.722 51.9203C120.475 53.3288 119.3 54.2669 118.197 54.7346C117.514 55.0229 117.022 55.0093 116.724 54.6938C116.478 54.4274 116.283 53.9977 116.139 53.405L115.966 52.6953L114.427 53.7639L113.539 54.3349C112.48 54.9875 111.685 55.3138 111.155 55.3138C110.477 55.3138 109.911 55.0174 109.458 54.4246C109.025 53.8645 108.808 53.2146 108.808 52.475C108.808 51.7463 109.066 51.0964 109.581 50.5254C110.318 49.7097 111.48 48.9619 113.069 48.2821C114.572 47.6459 115.785 47.3277 116.709 47.3277C117.022 47.3277 117.179 47.5017 117.179 47.8498C117.179 48.0891 117.138 48.2685 117.056 48.3882C116.974 48.5078 116.806 48.6302 116.551 48.7553L115.641 49.1958C114.292 49.832 113.305 50.4928 112.679 51.178C112.501 51.3683 112.412 51.5532 112.412 51.7327C112.412 51.9122 112.54 52.0019 112.795 52.0019C113.045 52.0019 113.628 51.6974 114.543 51.0883L115.142 50.6886C116.072 50.0577 116.849 49.7423 117.475 49.7423C118.005 49.7423 118.356 50.0061 118.53 50.5336C118.573 50.675 118.614 50.8191 118.652 50.9659C118.691 51.1073 118.729 51.2351 118.768 51.3493C118.855 51.6158 118.932 51.749 118.999 51.749C119.071 51.749 119.172 51.711 119.302 51.6348C119.432 51.5532 119.574 51.4526 119.728 51.333C119.887 51.2079 120.051 51.072 120.22 50.9251L121.093 50.1339C121.869 49.4051 122.451 49.0408 122.841 49.0408Z" fill="#7CB124"/>
<path d="M137.777 49.9054C137.777 50.161 137.481 50.6559 136.889 51.3901C136.282 52.1351 135.687 52.7415 135.105 53.2092C133.978 54.1554 132.729 54.8026 131.356 55.1507C130.836 55.2866 130.343 55.3546 129.876 55.3546C129.414 55.3546 129.028 55.3084 128.72 55.2159C128.417 55.1289 128.142 55.012 127.897 54.8651C127.656 54.7129 127.447 54.5388 127.269 54.3431C127.09 54.1473 126.941 53.9406 126.821 53.7231C126.585 53.2989 126.467 52.9074 126.467 52.5484C126.467 52.1895 126.503 51.8741 126.575 51.6022C126.643 51.3303 126.739 51.072 126.864 50.8272C127.302 49.9354 128.183 49.1468 129.508 48.4616C130.552 47.9123 131.549 47.5561 132.498 47.393C132.907 47.3223 133.198 47.2869 133.371 47.2869C133.545 47.2869 133.689 47.3087 133.805 47.3522C133.925 47.3903 134.029 47.4446 134.115 47.5153C134.308 47.673 134.404 47.8879 134.404 48.1598C134.404 48.4317 134.342 48.69 134.217 48.9347C134.091 49.174 133.932 49.3752 133.74 49.5384C133.364 49.8538 132.945 50.0115 132.483 50.0115C131.852 50.0115 131.332 49.919 130.923 49.7341C130.639 49.8483 130.398 50.0577 130.201 50.3623C130.037 50.6124 129.955 50.8381 129.955 51.0393C129.955 51.2351 129.994 51.4282 130.071 51.6185C130.153 51.8034 130.266 51.9693 130.41 52.1161C130.728 52.4315 131.111 52.5892 131.559 52.5892C132.599 52.5892 133.81 51.9665 135.192 50.7212L135.849 50.142C136.542 49.5438 137.036 49.2447 137.329 49.2447C137.628 49.2447 137.777 49.465 137.777 49.9054Z" fill="#7CB124"/>
<path d="M135.704 52.475C135.613 52.475 135.524 52.4506 135.437 52.4016C135.346 52.3527 135.261 52.2738 135.184 52.165C135.016 51.9258 134.932 51.5995 134.932 51.1862C134.932 50.7457 135.165 50.1964 135.632 49.5384C136.085 48.9021 136.612 48.3528 137.214 47.8906C137.859 47.3903 138.413 47.1401 138.875 47.1401C139.284 47.1401 139.561 47.2706 139.705 47.5316L139.807 47.7111C139.884 47.8471 139.961 47.915 140.038 47.915C140.115 47.915 140.235 47.9069 140.399 47.8906L141.424 47.809C141.583 47.7927 141.709 47.7845 141.8 47.7845C141.891 47.7845 141.995 47.8226 142.111 47.8987C142.231 47.9694 142.337 48.0646 142.428 48.1842C142.631 48.4562 142.732 48.7553 142.732 49.0816C142.732 49.4187 142.402 49.949 141.742 50.6722L141.266 51.2106C140.924 51.6076 140.753 51.8578 140.753 51.9611C140.753 52.0644 140.796 52.1569 140.883 52.2385C140.969 52.3146 141.063 52.3527 141.164 52.3527C141.266 52.3527 141.379 52.3228 141.504 52.2629C141.634 52.1977 141.793 52.1052 141.981 51.9856C142.168 51.8605 142.383 51.711 142.623 51.5369C143.283 51.0475 143.724 50.7103 143.945 50.5254L144.544 50.0441C144.954 49.7178 145.245 49.5547 145.418 49.5547C145.592 49.5547 145.734 49.5982 145.845 49.6852C145.955 49.7668 146.011 49.9109 146.011 50.1175C146.011 50.3242 145.917 50.6015 145.729 50.9496C145.541 51.2976 145.337 51.5995 145.115 51.8551C144.898 52.1107 144.687 52.3472 144.479 52.5648C144.272 52.7823 144.027 53.0189 143.743 53.2745C143.464 53.5246 143.153 53.7802 142.811 54.0412C142.469 54.2968 142.108 54.528 141.728 54.7346C140.866 55.2078 140.074 55.4443 139.352 55.4443C138.297 55.4443 137.654 55.1371 137.423 54.5225C137.351 54.3376 137.315 54.131 137.315 53.9026C137.315 53.6742 137.353 53.4294 137.43 53.1684C137.507 52.9019 137.609 52.6382 137.734 52.3771C137.984 51.8605 138.28 51.4037 138.622 51.0067C138.911 50.6641 139.055 50.4602 139.055 50.3949C139.055 50.2916 139.003 50.2263 138.897 50.1991C138.795 50.1719 138.644 50.1583 138.442 50.1583C138.355 50.1583 138.17 50.2997 137.885 50.5825L137.178 51.3167C136.427 52.0889 135.935 52.475 135.704 52.475Z" fill="#7CB124"/>
<path d="M150.965 45.737C150.826 45.8675 150.674 45.9763 150.51 46.0633C150.346 46.1449 150.163 46.1857 149.961 46.1857C149.759 46.1857 149.564 46.1476 149.376 46.0715C149.188 45.9953 149.025 45.8893 148.885 45.7533C148.582 45.4597 148.43 45.0844 148.43 44.6276C148.43 43.9261 148.95 43.404 149.99 43.0614C150.342 42.9418 150.631 42.8819 150.857 42.8819C151.083 42.8819 151.252 42.9118 151.362 42.9717C151.478 43.0261 151.572 43.0995 151.644 43.1919C151.788 43.3768 151.861 43.5672 151.861 43.7629C151.861 43.9533 151.839 44.1273 151.796 44.285C151.757 44.4427 151.699 44.6059 151.622 44.7745C151.545 44.943 151.451 45.1116 151.341 45.2802C151.23 45.4488 151.105 45.6011 150.965 45.737ZM149.145 54.7183C148.779 54.9304 148.423 55.099 148.076 55.2241C147.73 55.3546 147.388 55.4198 147.051 55.4198C146.718 55.4198 146.372 55.3301 146.011 55.1507C145.654 54.9657 145.337 54.721 145.057 54.4165C144.436 53.7367 144.126 52.9808 144.126 52.1487C144.126 51.3819 144.328 50.6043 144.732 49.8157C145.103 49.1033 145.575 48.5051 146.148 48.0211C146.721 47.5371 147.253 47.2951 147.744 47.2951C148.447 47.2951 148.823 47.5181 148.871 47.964C148.885 48.0999 148.892 48.2577 148.892 48.4371C148.892 48.6166 148.854 48.8232 148.777 49.0571C148.705 49.2855 148.608 49.5166 148.488 49.7505C148.372 49.9789 148.242 50.2046 148.098 50.4275C147.958 50.6451 147.823 50.8435 147.693 51.023C147.443 51.3656 147.243 51.6131 147.094 51.7653C147.094 51.9502 147.217 52.1406 147.462 52.3364C147.693 52.5213 147.888 52.6137 148.047 52.6137C148.211 52.6137 148.401 52.5702 148.618 52.4832C148.839 52.3962 149.066 52.2792 149.297 52.1324C149.533 51.9856 149.771 51.817 150.012 51.6267C150.257 51.4363 150.498 51.2405 150.734 51.0393L152.056 49.8728C152.581 49.4432 153.007 49.2284 153.334 49.2284C153.464 49.2284 153.563 49.2828 153.63 49.3915C153.702 49.4949 153.739 49.6172 153.739 49.7586C153.739 49.9 153.676 50.0958 153.551 50.3459C153.426 50.5907 153.252 50.8626 153.031 51.1617C152.814 51.4608 152.559 51.7735 152.265 52.0998C151.971 52.4261 151.654 52.7469 151.312 53.0624C150.97 53.3778 150.614 53.6796 150.243 53.9678C149.877 54.2506 149.511 54.5008 149.145 54.7183Z" fill="#7CB124"/>
<path d="M156.649 47.2217C156.697 47.3304 156.721 47.4745 156.721 47.654C156.721 47.828 156.642 48.0265 156.483 48.2495C156.608 48.3963 156.767 48.5676 156.96 48.7634C157.157 48.9538 157.347 49.1631 157.53 49.3915C157.973 49.9517 158.195 50.4873 158.195 50.9985C158.195 51.3357 157.99 51.7463 157.581 52.2303C157.456 52.3826 157.318 52.524 157.169 52.6545C157.67 52.437 158.272 52.0046 158.975 51.3575L159.82 50.5744C160.311 50.1121 160.638 49.8456 160.802 49.7749C160.971 49.7042 161.122 49.6689 161.257 49.6689C161.392 49.6689 161.522 49.707 161.647 49.7831C161.777 49.8592 161.842 49.9843 161.842 50.1583C161.842 50.3269 161.818 50.4928 161.77 50.6559C161.722 50.8136 161.664 50.9605 161.596 51.0964C161.5 51.2922 161.361 51.4934 161.178 51.7001C160.672 52.2385 160.181 52.7333 159.704 53.1847C159.232 53.6307 158.744 54.0141 158.238 54.3349C157.169 55.0093 155.985 55.3464 154.685 55.3464C153.958 55.3464 153.327 55.1371 152.792 54.7183C152.571 54.5443 152.4 54.3648 152.28 54.1799C152.164 53.9896 152.106 53.8427 152.106 53.7394C152.106 53.6307 152.138 53.5192 152.2 53.405C152.263 53.2853 152.347 53.163 152.453 53.0379C152.559 52.9128 152.679 52.7877 152.814 52.6626C152.954 52.5376 153.096 52.4261 153.24 52.3282C153.577 52.1052 153.828 51.9937 153.991 51.9937C154.16 51.9937 154.287 52.0182 154.374 52.0672C154.461 52.1107 154.54 52.1596 154.612 52.214C154.81 52.3663 154.95 52.4424 155.031 52.4424C155.229 52.4424 155.327 52.2901 155.327 51.9856C155.327 51.7028 155.195 51.3629 154.93 50.9659C154.824 50.8028 154.714 50.6423 154.598 50.4846C154.482 50.3269 154.386 50.1719 154.309 50.0197C154.155 50.2209 153.962 50.4275 153.731 50.6396L153.031 51.3085C152.544 51.7816 152.094 52.0073 151.68 51.9856C151.439 51.9638 151.319 51.662 151.319 51.0801C151.319 50.9768 151.326 50.8762 151.341 50.7783C151.365 50.6097 151.512 50.4058 151.781 50.1665C152.051 49.9272 152.246 49.7641 152.366 49.677C152.491 49.5846 152.597 49.503 152.684 49.4323L153.45 48.845C153.45 48.2903 153.734 47.7818 154.302 47.3196C154.841 46.8845 155.376 46.667 155.905 46.667C156.242 46.667 156.49 46.8519 156.649 47.2217Z" fill="#7CB124"/>
<path d="M170.653 49.1713C170.884 49.1713 171 49.3181 171 49.6118C171 49.8076 170.94 50.055 170.819 50.3541C170.704 50.6478 170.535 50.9251 170.314 51.1862C170.092 51.4418 169.837 51.7082 169.548 51.9856C169.264 52.2629 168.93 52.5539 168.544 52.8584C168.164 53.163 167.743 53.4648 167.28 53.7639C166.818 54.063 166.327 54.3322 165.807 54.5715C164.656 55.1044 163.542 55.3709 162.463 55.3709C161.64 55.3709 160.92 55.1289 160.304 54.6449C159.658 54.1391 159.336 53.5246 159.336 52.8013C159.336 51.6647 159.878 50.5852 160.961 49.5628C161.895 48.6818 162.995 47.9993 164.262 47.5153C165.032 47.2217 165.684 47.0748 166.219 47.0748C166.652 47.0748 167.018 47.1945 167.317 47.4338C167.634 47.6948 167.793 48.0456 167.793 48.4861C167.793 49.1767 167.309 49.9408 166.342 50.7783C166.187 50.9142 166.048 51.0285 165.923 51.1209L165.663 51.3167C165.181 51.6974 164.449 52.1243 163.467 52.5974C163.77 52.7768 164.052 52.8666 164.312 52.8666C164.577 52.8666 164.813 52.8312 165.02 52.7605C165.232 52.6898 165.47 52.5892 165.735 52.4587C166 52.3282 166.281 52.1732 166.58 51.9937C166.883 51.8088 167.189 51.6076 167.497 51.3901C168.186 50.9061 168.783 50.4112 169.288 49.9054C169.553 49.6281 169.89 49.4078 170.299 49.2447C170.434 49.1958 170.552 49.1713 170.653 49.1713ZM162.687 51.4635L163.084 51.2351C163.214 51.159 163.33 51.0883 163.431 51.023C164.404 50.3922 164.957 50.0033 165.092 49.8565C165.227 49.7097 165.294 49.6091 165.294 49.5547C165.294 49.4949 165.28 49.4269 165.251 49.3507C165.222 49.2746 165.184 49.2066 165.135 49.1468C165.02 48.9945 164.897 48.9184 164.767 48.9184C164.637 48.9184 164.493 48.9456 164.334 49C164.18 49.0544 164.023 49.1305 163.864 49.2284C163.705 49.3208 163.551 49.435 163.402 49.571C163.258 49.7015 163.13 49.8429 163.019 49.9952C162.764 50.3378 162.637 50.6342 162.637 50.8843C162.637 51.1345 162.653 51.3276 162.687 51.4635Z" fill="#7CB124"/>
</svg>
