<svg width="7" height="12" viewBox="0 0 7 12" fill="none" xmlns="http://www.w3.org/2000/svg">
<path d="M0.45625 6.67498C0.324351 6.54325 0.250164 6.36453 0.25 6.17811V5.82186C0.25216 5.63584 0.326046 5.45785 0.45625 5.32498L5.275 0.515609C5.36302 0.426868 5.48283 0.376953 5.60781 0.376953C5.7328 0.376953 5.85261 0.426868 5.94063 0.515609L6.60625 1.18123C6.69444 1.26764 6.74413 1.3859 6.74413 1.50936C6.74413 1.63282 6.69444 1.75108 6.60625 1.83748L2.43437 5.99998L6.60625 10.1625C6.69499 10.2505 6.74491 10.3703 6.74491 10.4953C6.74491 10.6203 6.69499 10.7401 6.60625 10.8281L5.94063 11.4844C5.85261 11.5731 5.7328 11.623 5.60781 11.623C5.48283 11.623 5.36302 11.5731 5.275 11.4844L0.45625 6.67498Z" fill="#BCBCBC"/>
</svg>
