<svg width="7" height="12" viewBox="0 0 7 12" fill="none" xmlns="http://www.w3.org/2000/svg">
<path d="M6.54375 6.67498C6.67565 6.54325 6.74984 6.36453 6.75 6.17811V5.82186C6.74784 5.63584 6.67395 5.45785 6.54375 5.32498L1.725 0.515609C1.63698 0.426868 1.51717 0.376953 1.39219 0.376953C1.2672 0.376953 1.14739 0.426868 1.05937 0.515609L0.39375 1.18123C0.305565 1.26764 0.25587 1.3859 0.25587 1.50936C0.25587 1.63282 0.305565 1.75108 0.39375 1.83748L4.56563 5.99998L0.39375 10.1625C0.305009 10.2505 0.255095 10.3703 0.255095 10.4953C0.255095 10.6203 0.305009 10.7401 0.39375 10.8281L1.05937 11.4844C1.14739 11.5731 1.2672 11.623 1.39219 11.623C1.51717 11.623 1.63698 11.5731 1.725 11.4844L6.54375 6.67498Z" fill="#BCBCBC"/>
</svg>
